<svg xmlns="http://www.w3.org/2000/svg" viewBox="0 0 120 120" width="120" height="120" role="img" aria-label="Bot4x">
<title>Bot4x</title>
<g fill="currentColor"><path fill-rule="evenodd" d="M44.77,15.82 L63.6,32.69 L71,23.91 L51.23,8.18ZM49.57,15.42 L63.19,27.89 L66.21,24.32 L51.63,12.97Z"></path><path fill-rule="evenodd" d="M76.66,44.48 L95.48,61.35 L104.52,50.65 L84.74,34.92ZM81.45,44.08 L95.08,56.56 L99.73,51.06 L85.14,39.71Z"></path><path fill-rule="evenodd" d="M104.82,2.15 L10.9,75.83 L21.1,88.17 L111.18,9.85ZM104.36,6.93 L15.69,76.29 L21.55,83.38 L106.4,9.4Z"></path><path fill-rule="evenodd" d="M68.8,43.91 L63.5,115.83 L79.5,116.17 L77.2,44.09ZM72.13,47.38 L66.97,112.5 L76.17,112.7 L73.73,47.42Z"></path><path fill-rule="evenodd" d="M16,88 L100,85.5 L100,74.5 L16,72ZM19.4,84.6 L96.6,82.1 L96.6,77.9 L19.4,75.4Z"></path></g>
</svg>